<mxfile host="app.diagrams.net" modified="2020-09-10T13:22:07.344Z" agent="5.0 (Windows NT 10.0; Win64; x64) AppleWebKit/537.36 (KHTML, like Gecko) Chrome/85.0.4183.83 Safari/537.36" etag="PyPKKp31ivTvrffdbn3k" version="13.6.9" type="github">
  <diagram id="ZtE1mqXVZwwX5wWtR2dM" name="Page-1">
    <mxGraphModel dx="1310" dy="784" grid="1" gridSize="10" guides="1" tooltips="1" connect="1" arrows="1" fold="1" page="1" pageScale="1" pageWidth="850" pageHeight="1100" math="0" shadow="0">
      <root>
        <mxCell id="0" />
        <mxCell id="1" parent="0" />
        <mxCell id="YzwQ69VODvqGEWO1cmw_-2" value="&lt;font style=&quot;font-size: 19px&quot;&gt;Tic-Tac-Toe&lt;/font&gt;" style="rounded=0;whiteSpace=wrap;html=1;fillColor=#1ba1e2;strokeColor=#006EAF;fontColor=#ffffff;" vertex="1" parent="1">
          <mxGeometry x="-560" y="440" width="130" height="60" as="geometry" />
        </mxCell>
        <mxCell id="YzwQ69VODvqGEWO1cmw_-5" value="&lt;font style=&quot;font-size: 19px&quot;&gt;Renderer&lt;/font&gt;" style="rounded=1;whiteSpace=wrap;html=1;fillColor=#1ba1e2;strokeColor=#006EAF;fontColor=#ffffff;" vertex="1" parent="1">
          <mxGeometry x="-555" y="550" width="120" height="60" as="geometry" />
        </mxCell>
        <mxCell id="YzwQ69VODvqGEWO1cmw_-6" value="&lt;font style=&quot;font-size: 19px&quot;&gt;Window&lt;/font&gt;" style="rounded=1;whiteSpace=wrap;html=1;fillColor=#1ba1e2;strokeColor=#006EAF;fontColor=#ffffff;" vertex="1" parent="1">
          <mxGeometry x="-400" y="550" width="120" height="60" as="geometry" />
        </mxCell>
        <mxCell id="YzwQ69VODvqGEWO1cmw_-7" value="" style="endArrow=none;html=1;entryX=0.5;entryY=1;entryDx=0;entryDy=0;exitX=0.5;exitY=0;exitDx=0;exitDy=0;fillColor=#1ba1e2;strokeWidth=8;strokeColor=#009AF5;" edge="1" parent="1">
          <mxGeometry width="50" height="50" relative="1" as="geometry">
            <mxPoint x="-499" y="550" as="sourcePoint" />
            <mxPoint x="-499" y="500" as="targetPoint" />
          </mxGeometry>
        </mxCell>
        <mxCell id="YzwQ69VODvqGEWO1cmw_-8" value="" style="endArrow=none;html=1;entryX=1;entryY=0.5;entryDx=0;entryDy=0;exitX=0.5;exitY=0;exitDx=0;exitDy=0;fillColor=#1ba1e2;strokeWidth=8;strokeColor=#009AF5;" edge="1" parent="1" target="YzwQ69VODvqGEWO1cmw_-2">
          <mxGeometry width="50" height="50" relative="1" as="geometry">
            <mxPoint x="-340.5" y="550" as="sourcePoint" />
            <mxPoint x="-340.5" y="500" as="targetPoint" />
            <Array as="points">
              <mxPoint x="-340" y="470" />
            </Array>
          </mxGeometry>
        </mxCell>
        <mxCell id="YzwQ69VODvqGEWO1cmw_-20" style="edgeStyle=orthogonalEdgeStyle;rounded=0;orthogonalLoop=1;jettySize=auto;html=1;exitX=0.5;exitY=0;exitDx=0;exitDy=0;strokeColor=#009AF5;strokeWidth=8;" edge="1" parent="1" source="YzwQ69VODvqGEWO1cmw_-12" target="YzwQ69VODvqGEWO1cmw_-19">
          <mxGeometry relative="1" as="geometry" />
        </mxCell>
        <mxCell id="YzwQ69VODvqGEWO1cmw_-12" value="&lt;font style=&quot;font-size: 19px&quot;&gt;Cell&lt;/font&gt;" style="rounded=1;whiteSpace=wrap;html=1;fillColor=#1ba1e2;strokeColor=#006EAF;fontColor=#ffffff;" vertex="1" parent="1">
          <mxGeometry x="-560" y="330" width="120" height="60" as="geometry" />
        </mxCell>
        <mxCell id="YzwQ69VODvqGEWO1cmw_-14" value="&lt;font style=&quot;font-size: 19px&quot;&gt;Texture&lt;/font&gt;" style="rounded=1;whiteSpace=wrap;html=1;fillColor=#1ba1e2;strokeColor=#006EAF;fontColor=#ffffff;" vertex="1" parent="1">
          <mxGeometry x="-560" y="100" width="120" height="60" as="geometry" />
        </mxCell>
        <mxCell id="YzwQ69VODvqGEWO1cmw_-17" value="" style="endArrow=none;html=1;entryX=0.5;entryY=1;entryDx=0;entryDy=0;exitX=0.5;exitY=0;exitDx=0;exitDy=0;fillColor=#1ba1e2;strokeWidth=8;strokeColor=#009AF5;" edge="1" parent="1">
          <mxGeometry width="50" height="50" relative="1" as="geometry">
            <mxPoint x="-500" y="440" as="sourcePoint" />
            <mxPoint x="-500" y="390" as="targetPoint" />
          </mxGeometry>
        </mxCell>
        <mxCell id="YzwQ69VODvqGEWO1cmw_-19" value="&lt;font style=&quot;font-size: 19px&quot;&gt;Button&lt;/font&gt;" style="rounded=1;whiteSpace=wrap;html=1;fillColor=#1ba1e2;strokeColor=#006EAF;fontColor=#ffffff;" vertex="1" parent="1">
          <mxGeometry x="-560" y="210" width="120" height="60" as="geometry" />
        </mxCell>
        <mxCell id="YzwQ69VODvqGEWO1cmw_-21" value="" style="endArrow=none;html=1;entryX=0.5;entryY=1;entryDx=0;entryDy=0;exitX=0.5;exitY=0;exitDx=0;exitDy=0;fillColor=#1ba1e2;strokeWidth=8;strokeColor=#009AF5;" edge="1" parent="1">
          <mxGeometry width="50" height="50" relative="1" as="geometry">
            <mxPoint x="-500.5" y="210" as="sourcePoint" />
            <mxPoint x="-500.5" y="160" as="targetPoint" />
          </mxGeometry>
        </mxCell>
        <mxCell id="YzwQ69VODvqGEWO1cmw_-22" value="&lt;font style=&quot;font-size: 19px&quot;&gt;Cross texture&lt;/font&gt;&lt;span style=&quot;color: rgba(0 , 0 , 0 , 0) ; font-family: monospace ; font-size: 0px&quot;&gt;%3CmxGraphModel%3E%3Croot%3E%3CmxCell%20id%3D%220%22%2F%3E%3CmxCell%20id%3D%221%22%20parent%3D%220%22%2F%3E%3CmxCell%20id%3D%222%22%20value%3D%22%26lt%3Bfont%20style%3D%26quot%3Bfont-size%3A%2019px%26quot%3B%26gt%3BRenderer%26lt%3B%2Ffont%26gt%3B%22%20style%3D%22rounded%3D1%3BwhiteSpace%3Dwrap%3Bhtml%3D1%3BfillColor%3D%231ba1e2%3BstrokeColor%3D%23006EAF%3BfontColor%3D%23ffffff%3B%22%20vertex%3D%221%22%20parent%3D%221%22%3E%3CmxGeometry%20x%3D%22-555%22%20y%3D%22550%22%20width%3D%22120%22%20height%3D%2260%22%20as%3D%22geometry%22%2F%3E%3C%2FmxCell%3E%3C%2Froot%3E%3C%2FmxGraphModel%3E&lt;/span&gt;" style="rounded=1;whiteSpace=wrap;html=1;fillColor=#1ba1e2;strokeColor=#006EAF;fontColor=#ffffff;" vertex="1" parent="1">
          <mxGeometry x="-740" y="330" width="120" height="60" as="geometry" />
        </mxCell>
        <mxCell id="YzwQ69VODvqGEWO1cmw_-23" value="&lt;font style=&quot;font-size: 19px&quot;&gt;Circle texture&lt;/font&gt;" style="rounded=1;whiteSpace=wrap;html=1;fillColor=#1ba1e2;strokeColor=#006EAF;fontColor=#ffffff;" vertex="1" parent="1">
          <mxGeometry x="-740" y="440" width="120" height="60" as="geometry" />
        </mxCell>
        <mxCell id="YzwQ69VODvqGEWO1cmw_-24" value="&lt;font style=&quot;font-size: 19px&quot;&gt;Empty texture&lt;/font&gt;" style="rounded=1;whiteSpace=wrap;html=1;fillColor=#1ba1e2;strokeColor=#006EAF;fontColor=#ffffff;" vertex="1" parent="1">
          <mxGeometry x="-740" y="550" width="120" height="60" as="geometry" />
        </mxCell>
        <mxCell id="YzwQ69VODvqGEWO1cmw_-27" value="" style="endArrow=none;html=1;entryX=0.5;entryY=1;entryDx=0;entryDy=0;exitX=0;exitY=0.25;exitDx=0;exitDy=0;fillColor=#1ba1e2;strokeWidth=8;strokeColor=#009AF5;" edge="1" parent="1" source="YzwQ69VODvqGEWO1cmw_-2">
          <mxGeometry width="50" height="50" relative="1" as="geometry">
            <mxPoint x="-620" y="400" as="sourcePoint" />
            <mxPoint x="-620" y="350" as="targetPoint" />
            <Array as="points">
              <mxPoint x="-590" y="455" />
              <mxPoint x="-590" y="350" />
            </Array>
          </mxGeometry>
        </mxCell>
        <mxCell id="YzwQ69VODvqGEWO1cmw_-28" value="" style="endArrow=none;html=1;entryX=0.5;entryY=1;entryDx=0;entryDy=0;exitX=1;exitY=0.5;exitDx=0;exitDy=0;fillColor=#1ba1e2;strokeWidth=8;strokeColor=#009AF5;" edge="1" parent="1" source="YzwQ69VODvqGEWO1cmw_-23">
          <mxGeometry width="50" height="50" relative="1" as="geometry">
            <mxPoint x="-560" y="520" as="sourcePoint" />
            <mxPoint x="-560" y="470" as="targetPoint" />
          </mxGeometry>
        </mxCell>
        <mxCell id="YzwQ69VODvqGEWO1cmw_-29" value="" style="endArrow=none;html=1;entryX=0;entryY=0.75;entryDx=0;entryDy=0;exitX=1;exitY=0.5;exitDx=0;exitDy=0;fillColor=#1ba1e2;strokeWidth=8;strokeColor=#009AF5;" edge="1" parent="1" source="YzwQ69VODvqGEWO1cmw_-24" target="YzwQ69VODvqGEWO1cmw_-2">
          <mxGeometry width="50" height="50" relative="1" as="geometry">
            <mxPoint x="-600" y="580" as="sourcePoint" />
            <mxPoint x="-600" y="530" as="targetPoint" />
            <Array as="points">
              <mxPoint x="-590" y="580" />
              <mxPoint x="-590" y="485" />
            </Array>
          </mxGeometry>
        </mxCell>
      </root>
    </mxGraphModel>
  </diagram>
</mxfile>
